# xmcd CD database file
# Copyright (C) 1993-1998 Ti Kan
#
# Track frame offsets:
#	150
#	16962
#	41522
#	57282
#	72640
#	91095
#	107072
#	128862
#	154375
#	172140
#	187180
#	205175
#	222565
#	236860
#	257895
#	273312
#	286017
#	305952
#	323332
#	340890
#
# Disc length: 4602 seconds
#
# Revision: 2
# Processed by: cddbd v1.4b41PL1 Copyright (c) Steve Scherf et al.
# Submitted via: CDValet v3.31 - Copyright (c) 1997 Greg Leichner
#
DISCID=3811f814
DTITLE=Diverse - Summer Sunsation 12 - CD 2
DYEAR=1900
DGENRE=
TTITLE0=Nana - Let it Rain
TTITLE1=Tic Tac Toe - Mr. Wichtig 
TTITLE2=Jam and Spoon - Kaleidoscope Skies
TTITLE3=Vertigo - Magic Eyes
TTITLE4=Hand in Hand for Children e.V. - Children Need A Helpin
TTITLE4=g Hand
TTITLE5=The Boyz - Round and Round
TTITLE6=Garry Barlow - Forever Love
TTITLE7=Depeche Mode - Home
TTITLE8=Bed and Breakfast - Mola - Sqeezer - Get it Right
TTITLE9=Marcel Romanoff - Stay the night
TTITLE10=Daisy Dee - Hey You
TTITLE11=Steel Pulse - Brown Eyed Girl
TTITLE12=Sweetbox feat. D. Christopher Tayler - I ll die for yo
TTITLE12=u
TTITLE13=R. Kelly - I can´t sleep baby
TTITLE14=Eric Gadd - My personality
TTITLE15=Ant and Dec - When i fall in love
TTITLE16=Damage - Wonderful Tonight
TTITLE17=Tekanewa - Raindance
TTITLE18=DJ Phil - Do you see the light
TTITLE19=Just Friends - What is love
EXTD=
EXTT0=
EXTT1=
EXTT2=
EXTT3=
EXTT4=
EXTT5=
EXTT6=
EXTT7=
EXTT8=
EXTT9=
EXTT10=
EXTT11=
EXTT12=
EXTT13=
EXTT14=
EXTT15=
EXTT16=
EXTT17=
EXTT18=
EXTT19=
PLAYORDER=
